<svg xmlns="http://www.w3.org/2000/svg" viewBox="0 0 32 32"><path d="M16 4C8.268 4 2 10.268 2 18s6.268 14 14 14 14-6.268 14-14S23.732 4 16 4zm0 25.25C9.787 29.25 4.75 24.213 4.75 18S9.787 6.75 16 6.75 27.25 11.787 27.25 18 22.213 29.25 16 29.25zM29.212 8.974C29.712 8.097 30 7.082 30 6c0-3.314-2.686-6-6-6-1.932 0-3.65.913-4.747 2.33 4.12.852 7.663 3.288 9.96 6.644zM12.748 2.33C11.65.914 9.932 0 8 0 4.686 0 2 2.686 2 6c0 1.082.287 2.098.788 2.974 2.297-3.356 5.838-5.792 9.96-6.643z"/><path d="M16 18v-8h-2v10h8v-2z"/></svg>
