<svg class="custom-icon" xmlns="http://www.w3.org/2000/svg" viewBox="0 0 100 100"><path class="inner-shape" d="M50 1C22.938 1 1 22.938 1 50s21.938 49 49 49 49-21.938 49-49S77.062 1 50 1zm29.1 78.1c-3.783 3.78-8.185 6.75-13.084 8.822-1.245.526-2.51.99-3.79 1.387v-7.345c0-3.86-1.324-6.7-3.972-8.517 1.66-.16 3.182-.383 4.57-.67 1.388-.287 2.855-.702 4.402-1.245 1.547-.543 2.935-1.19 4.163-1.938 1.227-.75 2.408-1.723 3.54-2.92s2.082-2.55 2.847-4.066 1.372-3.335 1.818-5.456c.446-2.12.67-4.458.67-7.01 0-4.945-1.61-9.155-4.833-12.633 1.467-3.827 1.308-7.99-.478-12.488l-1.197-.143c-.83-.097-2.32.254-4.474 1.052-2.153.798-4.57 2.105-7.25 3.924-3.796-1.053-7.735-1.58-11.82-1.58-4.114 0-8.038.527-11.77 1.58-1.69-1.15-3.295-2.097-4.81-2.847-1.515-.75-2.727-1.26-3.637-1.533-.91-.27-1.754-.44-2.536-.503-.782-.064-1.284-.08-1.507-.048-.223.03-.383.064-.478.096-1.787 4.53-1.946 8.694-.478 12.49-3.222 3.476-4.833 7.687-4.833 12.632 0 2.552.223 4.89.67 7.01.447 2.12 1.053 3.94 1.818 5.455.765 1.514 1.715 2.87 2.847 4.066s2.312 2.17 3.54 2.92c1.228.75 2.616 1.395 4.163 1.937 1.547.543 3.014.957 4.402 1.245 1.388.287 2.91.51 4.57.67-2.616 1.787-3.924 4.626-3.924 8.517v7.487c-1.444-.43-2.868-.938-4.267-1.53-4.9-2.073-9.3-5.04-13.083-8.823-3.782-3.783-6.75-8.185-8.823-13.084C9.934 60.948 8.847 55.56 8.847 50s1.087-10.948 3.23-16.016c2.074-4.9 5.042-9.3 8.824-13.083s8.185-6.75 13.084-8.822C39.052 9.934 44.44 8.848 50 8.848s10.948 1.086 16.016 3.23c4.9 2.073 9.3 5.04 13.083 8.823 3.78 3.783 6.75 8.185 8.822 13.084 2.143 5.07 3.23 10.457 3.23 16.016s-1.087 10.948-3.23 16.016c-2.074 4.9-5.042 9.3-8.823 13.083z"/></svg>