<svg class="custom-icon" xmlns="http://www.w3.org/2000/svg" viewBox="0 0 100 100"><path class="inner-shape" d="M82.54 1H17.46C8.41 1 1 8.408 1 17.46v65.08C1 91.59 8.408 99 17.46 99h65.08C91.59 99 99 91.592 99 82.54V17.46C99 8.41 91.592 1 82.54 1zM37.75 80.625H25.5V37.75h12.25v42.875zm-6.125-49c-3.383 0-6.125-2.742-6.125-6.125s2.742-6.125 6.125-6.125 6.125 2.742 6.125 6.125-2.742 6.125-6.125 6.125zm49 49h-12.25v-24.5c0-3.383-2.742-6.125-6.125-6.125s-6.125 2.742-6.125 6.125v24.5h-12.25V37.75h12.25v7.606c2.526-3.47 6.39-7.606 10.72-7.606 7.61 0 13.78 6.856 13.78 15.312v27.563z"/></svg>