<svg class="custom-icon" xmlns="http://www.w3.org/2000/svg" viewBox="0 0 100 100"><path class="inner-shape" d="M99 19.428c-3.605 1.608-7.48 2.695-11.546 3.184 4.15-2.503 7.338-6.466 8.84-11.19-3.884 2.32-8.186 4-12.767 4.91C79.86 12.4 74.634 9.943 68.85 9.943c-11.103 0-20.106 9.054-20.106 20.223 0 1.585.177 3.128.52 4.61-16.71-.846-31.525-8.896-41.442-21.132C6.092 16.633 5.1 20.107 5.1 23.813c0 7.017 3.55 13.208 8.945 16.834-3.296-.104-6.397-1.014-9.106-2.53-.003.086-.003.17-.003.256 0 9.8 6.93 17.972 16.13 19.83-1.69.464-3.464.71-5.298.71-1.297 0-2.556-.126-3.784-.362 2.56 8.035 9.984 13.883 18.782 14.046-6.88 5.424-15.55 8.657-24.97 8.657-1.624 0-3.224-.096-4.797-.282 8.9 5.74 19.468 9.088 30.82 9.088 36.983 0 57.207-30.817 57.207-57.543 0-.877-.02-1.748-.06-2.617 3.93-2.853 7.338-6.416 10.034-10.47z"/></svg>